<?xml version="1.0" encoding="iso-8859-1"?>
<!-- Generator: Adobe Illustrator 19.0.0, SVG Export Plug-In . SVG Version: 6.00 Build 0)  -->
<svg version="1.1" id="Capa_1" xmlns="http://www.w3.org/2000/svg" xmlns:xlink="http://www.w3.org/1999/xlink" x="0px" y="0px"
	 viewBox="0 0 512 512" style="enable-background:new 0 0 512 512;" xml:space="preserve">
<g>
	<g>
		<path fill="#ffffff" d="M469.333,213.333H168.125l94.917-79.094c9.083-7.573,14.292-18.698,14.292-30.521c0-21.896-17.813-39.719-39.729-39.719
			h-2.917c-9.417,0-18.542,3.354-25.75,9.458L3.75,247.875C1.375,249.896,0,252.875,0,256s1.375,6.104,3.75,8.125l205.208,174.427
			c7.188,6.094,16.313,9.448,25.729,9.448h2.917c21.917,0,39.729-17.823,39.729-39.719c0-11.823-5.208-22.948-14.292-30.521
			l-94.917-79.094h301.208C492.854,298.667,512,279.531,512,256S492.854,213.333,469.333,213.333z"/>
	</g>
</g>
<g>
</g>
<g>
</g>
<g>
</g>
<g>
</g>
<g>
</g>
<g>
</g>
<g>
</g>
<g>
</g>
<g>
</g>
<g>
</g>
<g>
</g>
<g>
</g>
<g>
</g>
<g>
</g>
<g>
</g>
</svg>
